# xmcd
#
# Track frame offsets: 
#        150
#        24568
#        47928
#        61981
#        79847
#        92498
#        106539
#        120089
#        134184
#        161196
#        173120
#        195642
#        213208
#        227772
#        244846
#        262409
#        276878
#        298272
#
# Disc length: 4147 seconds
#
# Revision: 0
# Processed by: cddbd v1.5.2PL0 Copyright (c) Steve Scherf et al.
# Submitted via: ExactAudioCopy v0.99pb4
#
DISCID=09103112
DTITLE=Various Artist - Disco Express Vol. 1 and 2
DYEAR=2008
DGENRE=Disco
TTITLE0=Blood Hollins Feat Jean Lang - How Have You Been
TTITLE1=Labelle - Pressure Cookin'
TTITLE2=Crown Heights Affair - Sex Trip
TTITLE3=The Nite-Liters - Happy Hooker
TTITLE4=The Choice Four - Hook It Up
TTITLE5=The Main Ingredient - Have You Ever Tried It
TTITLE6=Satyr - Free And Easy
TTITLE7=Beckett Broen - One Way Street
TTITLE8=Sunny Gale - I Wanna Know
TTITLE9=The Tymes - You Little Trustmaker
TTITLE10=Faith Hope and Charity - To Each His Own
TTITLE11=Bill Harris - Am I Cold, Am I Hot
TTITLE12=Charles Drain - What You Don't Know
TTITLE13=Blood Hollin - Weldon Irvine - Honey Baby
TTITLE14=Zulema - Half Of Your Heart
TTITLE15=The Brothers - Are You Ready For This
TTITLE16=Destiny - So Much Love
TTITLE17=The Choice Four - Is It Love
EXTD=
EXTT0=
EXTT1=
EXTT2=
EXTT3=
EXTT4=
EXTT5=
EXTT6=
EXTT7=
EXTT8=
EXTT9=
EXTT10=
EXTT11=
EXTT12=
EXTT13=
EXTT14=
EXTT15=
EXTT16=
EXTT17=
PLAYORDER=
